<svg width="116" height="159" fill="none" xmlns="http://www.w3.org/2000/svg"><g opacity=".8" clip-path="url(#a)" fill="#fff"><path d="M81.907 4.537c-1.286 0-2.251-.972-2.251-2.269C79.656.972 80.62 0 81.907 0s2.252.972 2.252 2.268a2.273 2.273 0 0 1-2.252 2.269Zm0 19.333c-1.286 0-2.251-.972-2.251-2.268 0-1.296.965-2.268 2.251-2.268 1.287 0 2.252.972 2.252 2.268 0 1.189-1.072 2.269-2.252 2.269Zm0 19.23c-1.286 0-2.251-.973-2.251-2.27 0-1.295.965-2.267 2.251-2.267 1.287 0 2.252.972 2.252 2.268a2.273 2.273 0 0 1-2.252 2.268Zm0 19.333c-1.286 0-2.251-.972-2.251-2.268 0-1.296.965-2.268 2.251-2.268 1.287 0 2.252.972 2.252 2.268a2.273 2.273 0 0 1-2.252 2.268Zm0 19.337c-1.286 0-2.251-.973-2.251-2.27 0-1.295.965-2.268 2.251-2.268 1.287 0 2.252.973 2.252 2.269 0 1.188-1.072 2.268-2.252 2.268Zm0 19.333c-1.286 0-2.251-.972-2.251-2.268 0-1.296.965-2.269 2.251-2.269 1.287 0 2.252.973 2.252 2.269a2.273 2.273 0 0 1-2.252 2.268Zm0 19.227c-1.286 0-2.251-.972-2.251-2.269 0-1.296.965-2.268 2.251-2.268 1.287 0 2.252.972 2.252 2.268a2.273 2.273 0 0 1-2.252 2.269Zm0 19.336c-1.286 0-2.251-.973-2.251-2.269 0-1.296.965-2.268 2.251-2.268 1.287 0 2.252.972 2.252 2.268a2.274 2.274 0 0 1-2.252 2.269Zm0 19.334c-1.286 0-2.251-.973-2.251-2.269 0-1.296.965-2.268 2.251-2.268 1.287 0 2.252.972 2.252 2.268 0 1.188-1.072 2.269-2.252 2.269ZM65.934 4.537c-1.287 0-2.252-.972-2.252-2.269C63.682.972 64.647 0 65.934 0c1.286 0 2.251.972 2.251 2.268 0 1.297-.965 2.269-2.251 2.269Zm0 19.333c-1.287 0-2.252-.972-2.252-2.268 0-1.296.965-2.268 2.252-2.268 1.286 0 2.251.972 2.251 2.268 0 1.189-.965 2.269-2.251 2.269Zm0 19.23c-1.287 0-2.252-.973-2.252-2.27 0-1.295.965-2.267 2.252-2.267 1.286 0 2.251.972 2.251 2.268 0 1.296-.965 2.268-2.251 2.268Zm0 19.333c-1.287 0-2.252-.972-2.252-2.268 0-1.296.965-2.268 2.252-2.268 1.286 0 2.251.972 2.251 2.268 0 1.296-.965 2.268-2.251 2.268Zm0 19.337c-1.287 0-2.252-.973-2.252-2.27 0-1.295.965-2.268 2.252-2.268 1.286 0 2.251.973 2.251 2.269 0 1.188-.965 2.268-2.251 2.268Zm0 19.333c-1.287 0-2.252-.972-2.252-2.268 0-1.296.965-2.269 2.252-2.269 1.286 0 2.251.973 2.251 2.269 0 1.296-.965 2.268-2.251 2.268Zm0 19.227c-1.287 0-2.252-.972-2.252-2.269 0-1.296.965-2.268 2.252-2.268 1.286 0 2.251.972 2.251 2.268 0 1.297-.965 2.269-2.251 2.269Zm0 19.336c-1.287 0-2.252-.973-2.252-2.269 0-1.296.965-2.268 2.252-2.268 1.286 0 2.251.972 2.251 2.268 0 1.296-.965 2.269-2.251 2.269Zm0 19.334c-1.287 0-2.252-.973-2.252-2.269 0-1.296.965-2.268 2.252-2.268 1.286 0 2.251.972 2.251 2.268 0 1.188-.965 2.269-2.251 2.269ZM113.749 4.537c-1.287 0-2.252-.972-2.252-2.269 0-1.296.965-2.268 2.252-2.268C115.035 0 116 .972 116 2.268c0 1.297-.965 2.269-2.251 2.269Zm0 19.336c-1.287 0-2.252-.973-2.252-2.269 0-1.296.965-2.268 2.252-2.268 1.286 0 2.251.972 2.251 2.268 0 1.189-.965 2.269-2.251 2.269Zm0 19.227c-1.287 0-2.252-.973-2.252-2.27 0-1.295.965-2.267 2.252-2.267 1.286 0 2.251 1.08 2.251 2.268 0 1.296-.965 2.268-2.251 2.268Zm0 19.333c-1.287 0-2.252-.972-2.252-2.268 0-1.296.965-2.268 2.252-2.268 1.286 0 2.251 1.08 2.251 2.268 0 1.188-.965 2.268-2.251 2.268Zm0 19.337c-1.287 0-2.252-.973-2.252-2.27 0-1.295.965-2.268 2.252-2.268 1.286 0 2.251.973 2.251 2.269 0 1.188-.965 2.268-2.251 2.268Zm0 19.333c-1.287 0-2.252-.972-2.252-2.268 0-1.296.965-2.269 2.252-2.269 1.286 0 2.251.973 2.251 2.269 0 1.296-.965 2.268-2.251 2.268Zm0 19.227c-1.287 0-2.252-.972-2.252-2.269 0-1.296.965-2.268 2.252-2.268 1.286 0 2.251.972 2.251 2.268 0 1.297-.965 2.269-2.251 2.269Zm0 19.336c-1.287 0-2.252-.973-2.252-2.269 0-1.296.965-2.268 2.252-2.268 1.286 0 2.251.972 2.251 2.268 0 1.296-.965 2.269-2.251 2.269Zm0 19.334c-1.287 0-2.252-.973-2.252-2.269 0-1.296.965-2.268 2.252-2.268 1.286 0 2.251.972 2.251 2.268 0 1.188-.965 2.269-2.251 2.269ZM97.775 4.537c-1.287 0-2.252-.972-2.252-2.269A2.273 2.273 0 0 1 97.775 0c1.286 0 2.251.972 2.251 2.268 0 1.297-.965 2.269-2.251 2.269Zm0 19.333c-1.287 0-2.252-.972-2.252-2.268 0-1.296.965-2.268 2.252-2.268 1.286 0 2.251.972 2.251 2.268 0 1.189-.965 2.269-2.251 2.269Zm0 19.23c-1.287 0-2.252-.973-2.252-2.27 0-1.295.965-2.267 2.252-2.267 1.286 0 2.251.972 2.251 2.268 0 1.296-.965 2.268-2.251 2.268Zm0 19.333c-1.287 0-2.252-.972-2.252-2.268 0-1.296.965-2.268 2.252-2.268 1.286 0 2.251.972 2.251 2.268 0 1.296-.965 2.268-2.251 2.268Zm0 19.337c-1.287 0-2.252-.973-2.252-2.27 0-1.295.965-2.268 2.252-2.268 1.286 0 2.251.973 2.251 2.269 0 1.188-.965 2.268-2.251 2.268Zm0 19.333c-1.287 0-2.252-.972-2.252-2.268 0-1.296.965-2.269 2.252-2.269 1.286 0 2.251.973 2.251 2.269 0 1.296-.965 2.268-2.251 2.268Zm0 19.227c-1.287 0-2.252-.972-2.252-2.269 0-1.296.965-2.268 2.252-2.268 1.286 0 2.251.972 2.251 2.268 0 1.297-.965 2.269-2.251 2.269Zm0 19.336c-1.287 0-2.252-.973-2.252-2.269 0-1.296.965-2.268 2.252-2.268 1.286 0 2.251.972 2.251 2.268 0 1.296-.965 2.269-2.251 2.269Zm0 19.334c-1.287 0-2.252-.973-2.252-2.269 0-1.296.965-2.268 2.252-2.268 1.286 0 2.251.972 2.251 2.268 0 1.188-.965 2.269-2.251 2.269ZM50.066 4.537c-1.286 0-2.25-.972-2.25-2.269C47.815.972 48.78 0 50.065 0c1.287 0 2.252.972 2.252 2.268a2.273 2.273 0 0 1-2.252 2.269Zm0 19.333c-1.286 0-2.25-.972-2.25-2.268 0-1.296.964-2.268 2.25-2.268 1.287 0 2.252.972 2.252 2.268 0 1.189-1.072 2.269-2.252 2.269Zm0 19.23c-1.286 0-2.25-.973-2.25-2.27 0-1.295.964-2.267 2.25-2.267 1.287 0 2.252.972 2.252 2.268a2.273 2.273 0 0 1-2.252 2.268Zm0 19.333c-1.286 0-2.25-.972-2.25-2.268 0-1.296.964-2.268 2.25-2.268 1.287 0 2.252.972 2.252 2.268a2.273 2.273 0 0 1-2.252 2.268Zm0 19.337c-1.286 0-2.25-.973-2.25-2.27 0-1.295.964-2.268 2.25-2.268 1.287 0 2.252.973 2.252 2.269 0 1.188-1.072 2.268-2.252 2.268Zm0 19.333c-1.286 0-2.25-.972-2.25-2.268 0-1.296.964-2.269 2.25-2.269 1.287 0 2.252.973 2.252 2.269a2.273 2.273 0 0 1-2.252 2.268Zm0 19.227c-1.286 0-2.25-.972-2.25-2.269 0-1.296.964-2.268 2.25-2.268 1.287 0 2.252.972 2.252 2.268a2.273 2.273 0 0 1-2.252 2.269Zm0 19.336c-1.286 0-2.25-.973-2.25-2.269 0-1.296.964-2.268 2.25-2.268 1.287 0 2.252.972 2.252 2.268a2.274 2.274 0 0 1-2.252 2.269Zm0 19.334c-1.286 0-2.25-.973-2.25-2.269 0-1.296.964-2.268 2.25-2.268 1.287 0 2.252.972 2.252 2.268 0 1.188-1.072 2.269-2.252 2.269ZM34.092 4.537c-1.286 0-2.251-.972-2.251-2.269C31.841.972 32.806 0 34.092 0c1.287 0 2.252.972 2.252 2.268 0 1.297-.965 2.269-2.252 2.269Zm0 19.333c-1.286 0-2.251-.972-2.251-2.268 0-1.296.965-2.268 2.251-2.268 1.287 0 2.252.972 2.252 2.268 0 1.189-.965 2.269-2.252 2.269Zm0 19.23c-1.286 0-2.251-.973-2.251-2.27 0-1.295.965-2.267 2.251-2.267 1.287 0 2.252.972 2.252 2.268 0 1.296-.965 2.268-2.252 2.268Zm-2.251 17.065a2.26 2.26 0 0 0 2.251 2.268 2.26 2.26 0 0 0 2.252-2.268 2.26 2.26 0 0 0-2.252-2.268 2.26 2.26 0 0 0-2.251 2.268Zm2.251 21.605c-1.286 0-2.251-.973-2.251-2.27 0-1.295.965-2.268 2.251-2.268 1.287 0 2.252.973 2.252 2.269 0 1.188-.965 2.268-2.252 2.268Zm0 19.333c-1.286 0-2.251-.972-2.251-2.268 0-1.296.965-2.269 2.251-2.269 1.287 0 2.252.972 2.252 2.269 0 1.296-.965 2.268-2.252 2.268Zm0 19.227c-1.286 0-2.251-.972-2.251-2.269 0-1.296.965-2.268 2.251-2.268 1.287 0 2.252.972 2.252 2.268 0 1.297-.965 2.269-2.252 2.269Zm-2.251 17.067a2.26 2.26 0 0 0 2.251 2.269 2.26 2.26 0 0 0 2.252-2.269 2.26 2.26 0 0 0-2.252-2.268 2.26 2.26 0 0 0-2.251 2.268ZM34.092 159c-1.286 0-2.251-.973-2.251-2.269 0-1.296.965-2.268 2.251-2.268 1.287 0 2.252.972 2.252 2.268 0 1.188-.965 2.269-2.252 2.269ZM18.118 4.537c-1.286 0-2.251-.972-2.251-2.269C15.867.972 16.832 0 18.118 0c1.287 0 2.252.972 2.252 2.268 0 1.297-.965 2.269-2.252 2.269Zm0 19.333c-1.286 0-2.251-.972-2.251-2.268 0-1.296.965-2.268 2.251-2.268 1.287 0 2.252.972 2.252 2.268 0 1.189-.965 2.269-2.252 2.269Zm0 19.23c-1.286 0-2.251-.973-2.251-2.27 0-1.295.965-2.267 2.251-2.267 1.287 0 2.252.972 2.252 2.268 0 1.296-.965 2.268-2.252 2.268Zm0 19.333c-1.286 0-2.251-.972-2.251-2.268 0-1.296.965-2.268 2.251-2.268 1.287 0 2.252.972 2.252 2.268 0 1.296-.965 2.268-2.252 2.268Zm0 19.337c-1.286 0-2.251-.973-2.251-2.27 0-1.295.965-2.268 2.251-2.268 1.287 0 2.252.973 2.252 2.269 0 1.188-.965 2.268-2.252 2.268Zm0 19.333c-1.286 0-2.251-.972-2.251-2.268 0-1.296.965-2.269 2.251-2.269 1.287 0 2.252.972 2.252 2.269 0 1.296-.965 2.268-2.252 2.268Zm0 19.227c-1.286 0-2.251-.972-2.251-2.269 0-1.296.965-2.268 2.251-2.268 1.287 0 2.252.972 2.252 2.268 0 1.297-.965 2.269-2.252 2.269Zm0 19.336c-1.286 0-2.251-.973-2.251-2.269 0-1.296.965-2.268 2.251-2.268 1.287 0 2.252.972 2.252 2.268 0 1.296-.965 2.269-2.252 2.269Zm0 19.334c-1.286 0-2.251-.973-2.251-2.269 0-1.296.965-2.268 2.251-2.268 1.287 0 2.252.972 2.252 2.268 0 1.188-.965 2.269-2.252 2.269ZM2.252 4.537C.965 4.537 0 3.565 0 2.268 0 .972.965 0 2.252 0c1.286 0 2.25.972 2.25 2.268a2.273 2.273 0 0 1-2.25 2.269Zm0 19.333C.965 23.87 0 22.899 0 21.603c0-1.296.965-2.268 2.252-2.268 1.286 0 2.25.972 2.25 2.268 0 1.189-1.071 2.269-2.25 2.269Zm0 19.23C.965 43.1 0 42.126 0 40.83c0-1.295.965-2.267 2.252-2.267 1.286 0 2.25.972 2.25 2.268a2.273 2.273 0 0 1-2.25 2.268Zm0 19.333C.965 62.433 0 61.461 0 60.165c0-1.296.965-2.268 2.252-2.268 1.286 0 2.25.972 2.25 2.268a2.273 2.273 0 0 1-2.25 2.268Zm0 19.337C.965 81.77 0 80.796 0 79.5c0-1.295.965-2.268 2.252-2.268 1.286 0 2.25.973 2.25 2.269 0 1.188-1.071 2.268-2.25 2.268Zm0 19.333c-1.287 0-2.252-.972-2.252-2.268 0-1.296.965-2.269 2.252-2.269 1.286 0 2.25.972 2.25 2.269a2.273 2.273 0 0 1-2.25 2.268Zm0 19.227c-1.287 0-2.252-.972-2.252-2.269 0-1.296.965-2.268 2.252-2.268 1.286 0 2.25.972 2.25 2.268a2.273 2.273 0 0 1-2.25 2.269Zm0 19.336c-1.287 0-2.252-.973-2.252-2.269 0-1.296.965-2.268 2.252-2.268 1.286 0 2.25.972 2.25 2.268a2.274 2.274 0 0 1-2.25 2.269Zm0 19.334C.965 159 0 158.027 0 156.731c0-1.296.965-2.268 2.252-2.268 1.286 0 2.25.972 2.25 2.268 0 1.188-1.071 2.269-2.25 2.269Z"/></g><defs><clipPath id="a"><path fill="#fff" transform="rotate(90 58 58)" d="M0 0h159v116H0z"/></clipPath></defs></svg>