<svg width="135" height="42" fill="none" xmlns="http://www.w3.org/2000/svg"><g opacity=".2" fill="#fff"><path d="M67.954-96.898C105.018-96.898 135-65.89 135-27.556c0 38.238-29.982 69.343-67.046 69.343-36.972 0-67.046-31.01-67.046-69.343C1-65.889 30.982-96.898 67.954-96.898Zm0 134.214c34.673 0 62.723-29.012 62.723-64.872s-28.05-64.872-62.723-64.872S5.231-63.416 5.231-27.556c0 35.765 28.142 64.872 62.723 64.872Z"/><path d="M67.954-81.965c28.97 0 52.514 24.35 52.514 54.314 0 29.962-23.544 54.313-52.514 54.313-28.971 0-52.515-24.255-52.515-54.218 0-30.058 23.544-54.409 52.515-54.409Zm0 100.352c24.555 0 44.513-20.641 44.513-46.038S92.509-73.69 67.954-73.69c-24.556 0-44.514 20.64-44.514 46.038 0 25.397 19.958 46.038 44.514 46.038Z"/></g></svg>