<svg width="62" height="72" fill="none" xmlns="http://www.w3.org/2000/svg"><g opacity=".8" clip-path="url(#a)" fill="#fff"><path d="M59.204 50.839c0-.799.599-1.398 1.398-1.398.799 0 1.398.6 1.398 1.398 0 .798-.6 1.397-1.398 1.397a1.406 1.406 0 0 1-1.398-1.397Zm-11.917 0c0-.799.599-1.398 1.398-1.398.799 0 1.398.6 1.398 1.398 0 .798-.6 1.397-1.398 1.397-.732 0-1.398-.665-1.398-1.397Zm-11.851 0c0-.799.6-1.398 1.398-1.398.8 0 1.398.6 1.398 1.398 0 .798-.599 1.397-1.398 1.397a1.406 1.406 0 0 1-1.398-1.397Zm-11.917 0c0-.799.6-1.398 1.398-1.398.799 0 1.398.6 1.398 1.398 0 .798-.599 1.397-1.398 1.397a1.406 1.406 0 0 1-1.398-1.397Zm-11.917 0c0-.799.6-1.398 1.398-1.398.799 0 1.398.6 1.398 1.398 0 .798-.599 1.397-1.398 1.397-.732 0-1.398-.665-1.398-1.397Zm-11.917 0c0-.799.599-1.398 1.398-1.398.799 0 1.398.6 1.398 1.398 0 .798-.6 1.397-1.398 1.397A1.406 1.406 0 0 1-.315 50.84Zm59.519-9.914c0-.799.599-1.398 1.398-1.398.799 0 1.398.6 1.398 1.398 0 .798-.6 1.397-1.398 1.397-.799 0-1.398-.599-1.398-1.397Zm-11.917 0c0-.799.599-1.398 1.398-1.398.799 0 1.398.6 1.398 1.398 0 .798-.6 1.397-1.398 1.397a1.406 1.406 0 0 1-1.398-1.397Zm-11.851 0c0-.799.6-1.398 1.398-1.398.8 0 1.398.6 1.398 1.398 0 .798-.599 1.397-1.398 1.397-.799 0-1.398-.599-1.398-1.397Zm-11.917 0c0-.799.6-1.398 1.398-1.398.799 0 1.398.6 1.398 1.398 0 .798-.599 1.397-1.398 1.397-.799 0-1.398-.599-1.398-1.397Zm-11.917 0c0-.799.6-1.398 1.398-1.398.799 0 1.398.6 1.398 1.398 0 .798-.599 1.397-1.398 1.397a1.406 1.406 0 0 1-1.398-1.397Zm-11.917 0c0-.799.599-1.398 1.398-1.398.799 0 1.398.6 1.398 1.398 0 .798-.6 1.397-1.398 1.397-.8 0-1.398-.599-1.398-1.397Zm59.519 29.678c0-.799.599-1.398 1.398-1.398.799 0 1.398.6 1.398 1.398C62 71.4 61.4 72 60.602 72c-.799 0-1.398-.599-1.398-1.397Zm-11.917 0c0-.799.599-1.398 1.398-1.398.799 0 1.398.6 1.398 1.398 0 .798-.6 1.397-1.398 1.397a1.406 1.406 0 0 1-1.398-1.397Zm-11.851 0c0-.799.6-1.398 1.398-1.398.8 0 1.398.6 1.398 1.398 0 .798-.665 1.397-1.398 1.397-.799 0-1.398-.599-1.398-1.397Zm-11.917 0c0-.799.6-1.398 1.398-1.398.799 0 1.398.6 1.398 1.398 0 .798-.666 1.397-1.398 1.397a1.406 1.406 0 0 1-1.398-1.397Zm-11.917 0c0-.799.6-1.398 1.398-1.398.799 0 1.398.6 1.398 1.398C14.398 71.4 13.8 72 13 72a1.406 1.406 0 0 1-1.398-1.397Zm-11.917 0c0-.799.599-1.398 1.398-1.398.799 0 1.398.6 1.398 1.398A1.367 1.367 0 0 1 1.083 72c-.8 0-1.398-.599-1.398-1.397Zm59.519-9.915c0-.798.599-1.397 1.398-1.397.799 0 1.398.666 1.398 1.398 0 .798-.6 1.397-1.398 1.397-.799 0-1.398-.599-1.398-1.398Zm-11.917 0c0-.798.599-1.397 1.398-1.397.799 0 1.398.599 1.398 1.398 0 .798-.6 1.397-1.398 1.397a1.406 1.406 0 0 1-1.398-1.398Zm-11.851 0c0-.798.6-1.397 1.398-1.397.8 0 1.398.599 1.398 1.398 0 .798-.599 1.397-1.398 1.397-.799 0-1.398-.599-1.398-1.398Zm-11.917 0c0-.798.6-1.397 1.398-1.397.799 0 1.398.599 1.398 1.398 0 .798-.599 1.397-1.398 1.397-.799 0-1.398-.599-1.398-1.398Zm-11.917 0c0-.798.6-1.397 1.398-1.397.799 0 1.398.599 1.398 1.398 0 .798-.599 1.397-1.398 1.397a1.406 1.406 0 0 1-1.398-1.398Zm-11.917 0c0-.798.599-1.397 1.398-1.397.799 0 1.398.599 1.398 1.398 0 .798-.6 1.397-1.398 1.397-.8 0-1.398-.599-1.398-1.398Zm59.519-29.613c0-.798.599-1.397 1.398-1.397.799 0 1.398.599 1.398 1.397 0 .799-.6 1.398-1.398 1.398a1.406 1.406 0 0 1-1.398-1.398Zm-11.917 0c0-.798.599-1.397 1.398-1.397.799 0 1.398.599 1.398 1.397 0 .799-.6 1.398-1.398 1.398-.732 0-1.398-.666-1.398-1.398Zm-11.851 0c0-.798.6-1.397 1.398-1.397.8 0 1.398.599 1.398 1.397 0 .799-.599 1.398-1.398 1.398a1.406 1.406 0 0 1-1.398-1.398Zm-11.917 0c0-.798.6-1.397 1.398-1.397.799 0 1.398.599 1.398 1.397 0 .799-.599 1.398-1.398 1.398a1.406 1.406 0 0 1-1.398-1.398Zm-11.917 0c0-.798.6-1.397 1.398-1.397.799 0 1.398.599 1.398 1.397 0 .799-.599 1.398-1.398 1.398-.732 0-1.398-.666-1.398-1.398Zm-11.917 0c0-.798.599-1.397 1.398-1.397.799 0 1.398.599 1.398 1.397 0 .799-.6 1.398-1.398 1.398a1.406 1.406 0 0 1-1.398-1.398Zm59.519-9.914c0-.798.599-1.397 1.398-1.397.799 0 1.398.599 1.398 1.397 0 .799-.6 1.398-1.398 1.398-.799 0-1.398-.6-1.398-1.398Zm-11.917 0c0-.798.599-1.397 1.398-1.397.799 0 1.398.599 1.398 1.397 0 .799-.6 1.398-1.398 1.398a1.406 1.406 0 0 1-1.398-1.398Zm-11.851 0c0-.798.6-1.397 1.398-1.397.8 0 1.398.599 1.398 1.397 0 .799-.599 1.398-1.398 1.398-.799 0-1.398-.6-1.398-1.398Zm-10.519-1.397a1.398 1.398 0 1 0 0 2.795 1.398 1.398 0 0 0 0-2.795Zm-13.315 1.397c0-.798.6-1.397 1.398-1.397.799 0 1.398.599 1.398 1.397 0 .799-.599 1.398-1.398 1.398a1.406 1.406 0 0 1-1.398-1.398Zm-11.917 0c0-.798.599-1.397 1.398-1.397.799 0 1.398.599 1.398 1.397 0 .799-.6 1.398-1.398 1.398-.8 0-1.398-.6-1.398-1.398Zm59.519-9.916c0-.798.599-1.397 1.398-1.397.799 0 1.398.599 1.398 1.397 0 .799-.6 1.398-1.398 1.398-.799 0-1.398-.6-1.398-1.398Zm-11.917 0c0-.798.599-1.397 1.398-1.397.799 0 1.398.599 1.398 1.397 0 .799-.6 1.398-1.398 1.398a1.406 1.406 0 0 1-1.398-1.398Zm-11.851 0c0-.798.6-1.397 1.398-1.397.8 0 1.398.599 1.398 1.397 0 .799-.599 1.398-1.398 1.398-.799 0-1.398-.6-1.398-1.398Zm-11.917 0c0-.798.6-1.397 1.398-1.397.799 0 1.398.599 1.398 1.397 0 .799-.599 1.398-1.398 1.398-.799 0-1.398-.6-1.398-1.398Zm-11.917 0c0-.798.6-1.397 1.398-1.397.799 0 1.398.599 1.398 1.397 0 .799-.599 1.398-1.398 1.398a1.406 1.406 0 0 1-1.398-1.398Zm-11.917 0c0-.798.599-1.397 1.398-1.397.799 0 1.398.599 1.398 1.397 0 .799-.6 1.398-1.398 1.398-.8 0-1.398-.6-1.398-1.398Zm59.519-9.847c0-.799.599-1.398 1.398-1.398C61.4 0 62 .6 62 1.398c0 .798-.6 1.397-1.398 1.397a1.406 1.406 0 0 1-1.398-1.397Zm-11.917 0c0-.799.599-1.398 1.398-1.398.799 0 1.398.599 1.398 1.398 0 .798-.6 1.397-1.398 1.397-.732 0-1.398-.666-1.398-1.397Zm-11.851 0c0-.799.6-1.398 1.398-1.398.8 0 1.398.599 1.398 1.398 0 .798-.599 1.397-1.398 1.397a1.406 1.406 0 0 1-1.398-1.397Zm-11.917 0c0-.799.6-1.398 1.398-1.398.799 0 1.398.599 1.398 1.398 0 .798-.599 1.397-1.398 1.397a1.406 1.406 0 0 1-1.398-1.397Zm-11.917 0C11.602.599 12.202 0 13 0c.799 0 1.398.599 1.398 1.398 0 .798-.599 1.397-1.398 1.397-.732 0-1.398-.666-1.398-1.397Zm-11.917 0C-.315.599.284 0 1.083 0 1.882 0 2.48.6 2.48 1.398c0 .798-.6 1.397-1.398 1.397A1.406 1.406 0 0 1-.315 1.398Z"/></g><defs><clipPath id="a"><path fill="#fff" transform="rotate(-180 31 36)" d="M0 0h62v72H0z"/></clipPath></defs></svg>