<svg width="236" height="70" fill="none" xmlns="http://www.w3.org/2000/svg"><g opacity=".2" fill="#fff"><path d="M117.581-166C52.581-166 0-113.419 0-48.42 0 16.42 52.58 69.162 117.581 69.162c64.838 0 117.58-52.58 117.58-117.58C235-113.42 182.419-166 117.581-166Zm0 227.58c-60.807 0-110-49.193-110-110 0-60.806 49.193-109.999 110-109.999 60.806 0 110 49.193 110 110 0 60.645-49.355 110-110 110Z"/><path d="M117.582-140.678c-50.807 0-92.097 41.29-92.097 92.097 0 50.806 41.29 92.097 92.097 92.097 50.806 0 92.096-41.13 92.096-91.936 0-50.967-41.29-92.258-92.096-92.258Zm0 170.162c-43.065 0-78.065-35-78.065-78.065 0-43.064 35-78.064 78.065-78.064 43.064 0 78.064 35 78.064 78.064 0 43.065-35 78.065-78.064 78.065Z"/></g></svg>