<svg width="119" height="163" fill="none" xmlns="http://www.w3.org/2000/svg"><g opacity=".8" clip-path="url(#a)" fill="#FFCF2D"><path d="M6.058 70.15c.582 1.01.262 2.203-.748 2.785-1.01.583-2.203.264-2.786-.744-.582-1.009-.261-2.202.748-2.785 1.01-.583 2.252-.18 2.786.745Zm15.059-8.695c.583 1.009.262 2.202-.747 2.785-1.01.583-2.204.264-2.786-.745-.582-1.008-.262-2.202.748-2.785.925-.534 2.252-.18 2.785.745Zm15.06-8.695c.582 1.008.262 2.202-.748 2.785-1.01.583-2.203.264-2.785-.745-.583-1.008-.262-2.202.747-2.785 1.01-.583 2.252-.18 2.786.745Zm14.975-8.646c.583 1.008.262 2.202-.748 2.784-1.01.583-2.203.264-2.785-.745-.583-1.008-.262-2.201.748-2.784 1.01-.583 2.252-.18 2.785.745Zm15.06-8.694c.582 1.009.262 2.202-.748 2.785-1.01.583-2.203.264-2.786-.745-.582-1.008-.261-2.202.748-2.785 1.01-.583 2.252-.18 2.786.745Zm15.06-8.695c.582 1.008.261 2.202-.748 2.785-1.01.583-2.204.263-2.786-.745-.582-1.009-.262-2.202.748-2.785.925-.534 2.252-.18 2.785.745ZM13.287 82.672c.583 1.008.262 2.202-.748 2.785-1.01.583-2.203.264-2.785-.745-.582-1.008-.262-2.202.748-2.785 1.01-.583 2.203-.263 2.785.745Zm15.06-8.695c.582 1.008.262 2.202-.748 2.785-1.01.582-2.203.263-2.786-.745-.582-1.009-.261-2.202.748-2.785.926-.534 2.204-.264 2.786.745Zm15.06-8.694c.582 1.009.261 2.202-.748 2.785-1.01.583-2.204.264-2.786-.745-.582-1.008-.262-2.202.748-2.784 1.01-.583 2.203-.264 2.785.744Zm14.975-8.646c.582 1.008.262 2.202-.748 2.785-1.01.583-2.203.264-2.786-.745-.582-1.008-.261-2.202.748-2.785 1.01-.583 2.204-.264 2.786.745Zm15.059-8.695c.583 1.008.262 2.202-.747 2.785-1.01.582-2.204.263-2.786-.745-.582-1.009-.262-2.202.748-2.785 1.01-.583 2.203-.264 2.785.745Zm15.06-8.696c.582 1.009.262 2.202-.748 2.785-1.01.583-2.203.264-2.786-.745-.582-1.008-.261-2.202.748-2.785.926-.534 2.204-.263 2.786.745ZM6.707 36.494c.582 1.009.261 2.202-.748 2.785-1.01.583-2.204.264-2.786-.745-.582-1.008-.262-2.202.748-2.785.925-.534 2.203-.263 2.786.745Zm15.059-8.693c.582 1.009.262 2.202-.748 2.785-1.01.583-2.203.264-2.785-.745-.583-1.009-.262-2.202.747-2.785 1.01-.583 2.204-.264 2.786.745Zm14.975-8.647c.583 1.009.262 2.203-.747 2.785-1.01.583-2.204.264-2.786-.744-.582-1.009-.262-2.203.748-2.785 1.01-.583 2.203-.264 2.785.744Zm15.06-8.694c.582 1.008.262 2.201-.748 2.784-1.01.583-2.203.264-2.785-.745-.583-1.008-.262-2.202.747-2.785 1.01-.583 2.204-.263 2.786.745ZM66.86 1.764c.583 1.008.262 2.202-.747 2.785-1.01.583-2.204.263-2.786-.745-.582-1.009-.262-2.202.748-2.785.925-.534 2.203-.264 2.786.745ZM13.936 49.018c.582 1.008.262 2.202-.748 2.785-1.01.583-2.203.263-2.785-.745-.583-1.009-.262-2.202.747-2.785.926-.534 2.204-.264 2.786.745Zm15.06-8.696c.582 1.009.262 2.203-.748 2.785-1.01.583-2.203.264-2.786-.745-.582-1.008-.261-2.202.748-2.784 1.01-.583 2.204-.264 2.786.744Zm14.975-8.646c.582 1.009.262 2.202-.748 2.785-1.01.583-2.203.264-2.785-.745-.583-1.008-.262-2.202.747-2.785 1.01-.583 2.204-.264 2.786.745Zm15.059-8.693c.583 1.008.262 2.202-.747 2.784-1.01.583-2.203.264-2.786-.744-.582-1.009-.261-2.202.748-2.785 1.01-.583 2.204-.264 2.786.745Zm15.06-8.696c.583 1.009.262 2.202-.748 2.785-1.01.583-2.203.264-2.785-.745-.582-1.008-.262-2.202.748-2.785.925-.534 2.203-.263 2.785.745ZM5.41 103.805c.581 1.008.26 2.202-.749 2.785-1.01.583-2.203.263-2.785-.745-.583-1.009-.262-2.202.747-2.785 1.01-.583 2.252-.18 2.786.745Zm15.059-8.695c.582 1.008.261 2.202-.748 2.784-1.01.583-2.204.264-2.786-.744-.582-1.009-.262-2.202.748-2.785 1.01-.583 2.252-.18 2.786.745Zm15.059-8.694c.583 1.009.262 2.202-.747 2.785-1.01.583-2.204.264-2.786-.745-.582-1.008-.262-2.202.748-2.785.925-.534 2.252-.18 2.785.745Zm15.06-8.696c.582 1.01.262 2.203-.748 2.786-1.01.583-2.203.263-2.786-.745-.582-1.008-.261-2.202.748-2.785 1.01-.583 2.252-.18 2.786.745Zm14.975-8.646c.582 1.009.262 2.202-.748 2.785-1.01.583-2.203.264-2.785-.744-.583-1.009-.262-2.203.748-2.785 1.01-.583 2.252-.18 2.785.744Zm15.06-8.694c.582 1.008.261 2.201-.748 2.784-1.01.583-2.204.264-2.786-.745-.582-1.008-.261-2.202.748-2.785 1.01-.583 2.252-.18 2.786.745Zm15.059-8.694c.583 1.008.262 2.202-.748 2.785-1.009.583-2.203.263-2.785-.745-.582-1.009-.262-2.202.748-2.785.925-.534 2.252-.18 2.785.745Zm-83.043 64.64c.582 1.009.261 2.202-.748 2.785-1.01.583-2.204.264-2.786-.745-.582-1.008-.262-2.202.748-2.784 1.01-.583 2.203-.264 2.786.744Zm14.311-5.91a2.039 2.039 0 1 0-2.785-.745 2.04 2.04 0 0 0 2.785.745Zm15.808-11.478c.582 1.008.261 2.202-.748 2.785-1.01.582-2.203.263-2.786-.745-.582-1.009-.261-2.202.748-2.785.925-.534 2.203-.264 2.786.745Zm15.059-8.696c.583 1.009.262 2.202-.748 2.785-1.009.583-2.203.264-2.785-.745-.582-1.008-.262-2.202.748-2.784 1.01-.583 2.203-.264 2.785.744Zm14.976-8.646c.582 1.008.261 2.202-.748 2.785-1.01.583-2.204.263-2.786-.745-.582-1.008-.262-2.202.748-2.785 1.01-.583 2.203-.264 2.786.745Zm14.312-5.909a2.04 2.04 0 1 0-2.786-.744 2.039 2.039 0 0 0 2.785.744Zm15.807-11.48c.582 1.009.262 2.202-.748 2.785-1.01.583-2.203.264-2.786-.745-.582-1.008-.261-2.202.748-2.785.926-.534 2.204-.263 2.786.745ZM4.893 137.494c.582 1.009.262 2.202-.748 2.785-1.01.583-2.203.264-2.785-.745-.583-1.008-.262-2.202.747-2.785.926-.534 2.204-.263 2.786.745Zm14.975-8.644c.583 1.008.262 2.202-.747 2.785-1.01.583-2.204.263-2.786-.745-.582-1.009-.262-2.202.748-2.785 1.01-.583 2.203-.264 2.785.745Zm15.06-8.696c.582 1.009.262 2.203-.748 2.785-1.01.583-2.203.264-2.786-.744-.582-1.009-.261-2.202.748-2.785 1.01-.583 2.204-.264 2.786.744Zm15.059-8.695c.583 1.009.262 2.202-.747 2.785-1.01.583-2.204.264-2.786-.745-.582-1.008-.262-2.202.748-2.785.925-.534 2.203-.263 2.785.745Zm15.06-8.693c.582 1.008.262 2.202-.748 2.785-1.01.583-2.203.263-2.785-.745-.583-1.009-.262-2.202.747-2.785 1.01-.583 2.204-.264 2.786.745Zm14.976-8.646c.582 1.008.261 2.201-.748 2.784-1.01.583-2.204.264-2.786-.745-.582-1.008-.262-2.202.748-2.785 1.01-.582 2.203-.263 2.786.745Zm15.059-8.696c.583 1.008.262 2.202-.748 2.785-1.01.583-2.203.264-2.785-.745-.583-1.008-.262-2.202.747-2.785 1.01-.583 2.204-.264 2.786.745Zm15.06-8.694c.582 1.01.261 2.203-.748 2.786-1.01.582-2.204.263-2.786-.745-.582-1.009-.262-2.202.748-2.785.925-.535 2.203-.264 2.786.745Zm-98.068 73.204c.582 1.008.262 2.202-.748 2.785-1.01.583-2.203.263-2.785-.745-.583-1.009-.262-2.202.747-2.785.926-.534 2.252-.18 2.786.745Zm14.976-8.647c.582 1.009.261 2.202-.748 2.785-1.01.583-2.204.264-2.786-.745-.582-1.008-.262-2.202.748-2.785 1.01-.582 2.252-.179 2.785.745Zm15.06-8.695c.581 1.008.26 2.202-.749 2.785-1.01.583-2.203.264-2.785-.745-.583-1.008-.262-2.202.747-2.785 1.01-.583 2.252-.179 2.786.745Zm15.059-8.693c.582 1.008.261 2.202-.748 2.785-1.01.582-2.204.263-2.786-.745-.582-1.009-.262-2.202.748-2.785.925-.535 2.252-.18 2.786.745Zm15.059-8.696c.583 1.009.262 2.202-.748 2.785-1.01.583-2.203.264-2.785-.745-.582-1.008-.262-2.202.748-2.785 1.01-.582 2.252-.179 2.785.745Zm14.976-8.646c.582 1.008.261 2.202-.748 2.785-1.01.583-2.204.263-2.786-.745-.582-1.009-.262-2.202.748-2.785 1.01-.583 2.252-.18 2.786.745Zm15.059-8.695c.582 1.008.262 2.202-.748 2.784-1.009.583-2.203.264-2.785-.744-.583-1.009-.262-2.202.748-2.785 1.009-.583 2.251-.18 2.785.745Zm15.06-8.694c.582 1.009.262 2.202-.748 2.785-1.01.583-2.204.264-2.786-.745-.582-1.008-.262-2.202.748-2.785.925-.534 2.252-.18 2.786.745Z"/></g><defs><clipPath id="a"><path fill="#fff" transform="rotate(-30 104.42 143.98)" d="M0 0h143v105H0z"/></clipPath></defs></svg>