<svg width="117" height="177" fill="none" xmlns="http://www.w3.org/2000/svg"><g opacity=".8" clip-path="url(#a)" fill="#FFCF2D"><path d="M66.248 18.964c-1.009.582-2.202.261-2.785-.748-.583-1.01-.264-2.204.744-2.786 1.009-.582 2.203-.262 2.786.748.582 1.01.18 2.252-.745 2.786Zm8.694 15.059c-1.008.582-2.202.262-2.785-.748-.583-1.01-.263-2.203.745-2.785 1.009-.583 2.202-.262 2.785.748.534.925.18 2.251-.745 2.785Zm8.646 14.976c-1.008.582-2.202.261-2.785-.748-.583-1.01-.263-2.203.745-2.786 1.009-.582 2.202-.262 2.785.748.583 1.01.18 2.252-.745 2.786Zm8.695 15.058c-1.009.583-2.202.262-2.785-.748-.583-1.009-.264-2.203.745-2.785 1.008-.582 2.202-.262 2.785.748.582 1.01.18 2.252-.745 2.785Zm8.695 15.06c-1.009.582-2.202.262-2.785-.748-.583-1.01-.264-2.203.745-2.786 1.008-.582 2.202-.261 2.784.748.535.926.18 2.252-.744 2.786Zm8.694 15.06c-1.008.582-2.202.261-2.785-.748-.583-1.01-.263-2.204.745-2.786 1.009-.582 2.202-.262 2.785.748.583 1.01.18 2.252-.745 2.785Zm8.646 14.975c-1.008.582-2.202.262-2.785-.748-.583-1.009-.263-2.203.745-2.785 1.009-.583 2.202-.262 2.785.747.583 1.01.18 2.252-.745 2.786ZM53.726 26.193c-1.009.582-2.202.262-2.785-.748-.583-1.01-.264-2.203.745-2.785 1.008-.583 2.202-.262 2.785.747.582 1.01.263 2.204-.745 2.786Zm8.694 15.06c-1.008.582-2.202.261-2.785-.748-.583-1.01-.263-2.204.745-2.786 1.009-.582 2.202-.262 2.785.748.534.925.264 2.203-.745 2.786Zm8.646 14.975c-1.008.582-2.202.262-2.785-.748-.583-1.01-.263-2.203.745-2.785 1.009-.583 2.202-.262 2.785.748.583 1.01.264 2.203-.745 2.785Zm8.694 15.06c-1.008.582-2.201.262-2.784-.748-.583-1.01-.264-2.203.745-2.786 1.008-.582 2.202-.261 2.785.748.582 1.01.263 2.204-.745 2.786Zm8.696 15.059c-1.009.583-2.202.262-2.785-.747-.583-1.01-.264-2.204.745-2.786 1.008-.582 2.202-.262 2.785.748.534.925.263 2.203-.745 2.785Zm8.694 15.06c-1.008.582-2.202.262-2.785-.748-.583-1.01-.263-2.203.745-2.786 1.009-.582 2.202-.261 2.785.748.583 1.01.264 2.204-.745 2.786Zm8.646 14.975c-1.008.582-2.202.261-2.785-.748-.583-1.01-.263-2.204.745-2.786 1.009-.582 2.202-.262 2.785.748.583 1.009.264 2.203-.745 2.786Zm8.695 15.059c-1.009.582-2.202.262-2.785-.748-.583-1.009-.264-2.203.745-2.785 1.008-.583 2.202-.262 2.785.747.582 1.01.263 2.204-.745 2.786ZM91.208 4.552c-1.009.583-2.202.262-2.785-.747-.583-1.01-.264-2.204.745-2.786 1.008-.582 2.202-.262 2.785.748.582 1.01.263 2.203-.745 2.785Zm8.694 15.06c-1.008.582-2.202.262-2.784-.748-.583-1.01-.264-2.203.744-2.786 1.009-.582 2.202-.261 2.785.748.535.926.264 2.204-.745 2.786Zm8.647 14.976c-1.009.582-2.202.261-2.785-.748-.583-1.01-.264-2.204.745-2.786 1.008-.582 2.25-.177 2.784.748.583 1.01.264 2.203-.744 2.786Zm8.694 15.059c-1.008.583-2.202.262-2.785-.748-.583-1.01-.263-2.203.745-2.785 1.009-.583 2.251-.178 2.785.748.534.925.264 2.203-.745 2.785ZM78.686 11.782c-1.009.582-2.202.262-2.785-.748-.583-1.01-.18-2.252.745-2.786 1.008-.582 2.202-.261 2.784.748.583 1.01.264 2.204-.744 2.786Zm8.694 15.059c-1.008.583-2.202.262-2.785-.747-.583-1.01-.263-2.204.745-2.786 1.009-.582 2.202-.262 2.785.748.534.925.264 2.203-.745 2.785Zm8.646 14.976c-1.008.582-2.202.262-2.784-.748-.583-1.01-.264-2.203.744-2.785 1.009-.583 2.202-.262 2.785.747.583 1.01.264 2.204-.745 2.786Zm8.695 15.06c-1.008.582-2.202.261-2.785-.748-.583-1.01-.264-2.204.745-2.786 1.008-.582 2.202-.262 2.785.748.583 1.01.264 2.203-.745 2.786Zm8.695 15.059c-1.009.582-2.202.262-2.785-.748-.583-1.01-.264-2.203.745-2.785 1.008-.583 2.202-.262 2.784.747.535.926.264 2.204-.744 2.786ZM41.287 33.374c-1.008.582-2.202.261-2.785-.748-.583-1.01-.263-2.203.745-2.786 1.009-.582 2.202-.262 2.785.748.583 1.01.18 2.252-.745 2.786Zm8.695 15.059c-1.008.583-2.202.262-2.785-.748-.583-1.01-.264-2.203.745-2.785 1.008-.582 2.202-.262 2.785.748.534.925.18 2.252-.745 2.785Zm8.646 14.976c-1.008.582-2.202.262-2.785-.748-.583-1.01-.264-2.203.745-2.786 1.008-.582 2.202-.261 2.785.748.583 1.01.18 2.252-.745 2.786Zm8.695 15.06c-1.009.582-2.202.261-2.785-.748-.583-1.01-.264-2.204.745-2.786 1.008-.582 2.201-.262 2.784.748.583 1.01.18 2.252-.744 2.785Zm8.694 15.059c-1.008.582-2.202.262-2.785-.748-.583-1.01-.263-2.203.745-2.785 1.009-.583 2.202-.262 2.785.747.534.926.18 2.252-.745 2.786Zm8.695 15.06c-1.008.582-2.202.261-2.785-.748-.583-1.01-.264-2.204.745-2.786 1.008-.582 2.202-.262 2.785.748.583 1.009.18 2.252-.745 2.786Zm8.646 14.975c-1.008.582-2.202.262-2.785-.748-.583-1.009-.264-2.203.745-2.785 1.008-.583 2.202-.262 2.785.748.583 1.009.18 2.251-.745 2.785Zm8.695 15.06c-1.009.582-2.203.262-2.785-.748-.583-1.01-.264-2.203.744-2.786 1.009-.582 2.203-.262 2.785.748.583 1.01.18 2.252-.744 2.786Zm8.694 15.059c-1.008.583-2.202.262-2.785-.747-.583-1.01-.263-2.204.745-2.786 1.009-.582 2.202-.262 2.785.748.534.925.18 2.252-.745 2.785ZM28.765 40.603c-1.008.582-2.202.262-2.785-.748-.583-1.01-.263-2.203.745-2.785 1.009-.583 2.202-.262 2.785.748.583 1.01.264 2.203-.745 2.785Zm8.695 15.06c-1.008.582-2.202.262-2.785-.748-.583-1.01-.264-2.203.745-2.786 1.008-.582 2.202-.261 2.785.748.534.926.264 2.204-.745 2.786Zm8.646 14.975c-1.009.583-2.202.262-2.785-.747-.583-1.01-.264-2.204.745-2.786 1.008-.582 2.202-.262 2.785.748.583 1.01.264 2.203-.745 2.785Zm5.91 14.312a2.04 2.04 0 1 0 .745-2.785 2.039 2.039 0 0 0-.745 2.785Zm11.479 15.808c-1.008.582-2.202.261-2.785-.748-.583-1.01-.263-2.204.745-2.786 1.009-.582 2.202-.262 2.785.748.534.925.264 2.203-.745 2.786Zm8.695 15.059c-1.008.582-2.202.262-2.785-.748-.583-1.009-.264-2.203.745-2.785 1.008-.583 2.202-.262 2.785.747.583 1.01.263 2.204-.745 2.786Zm8.646 14.976c-1.008.582-2.202.261-2.785-.748-.583-1.01-.264-2.204.745-2.786 1.008-.582 2.202-.262 2.785.748.583 1.01.263 2.203-.745 2.786Zm5.91 14.311a2.039 2.039 0 1 0 3.53-2.037 2.039 2.039 0 1 0-3.53 2.037Zm11.479 15.808c-1.008.582-2.202.262-2.785-.748-.583-1.01-.263-2.203.745-2.786 1.009-.582 2.202-.261 2.785.748.534.926.264 2.204-.745 2.786ZM16.243 47.834c-1.008.582-2.202.261-2.785-.748-.583-1.01-.264-2.203.745-2.786 1.008-.582 2.202-.262 2.785.748.583 1.01.264 2.203-.745 2.786Zm8.695 15.059c-1.009.582-2.203.262-2.785-.748-.583-1.01-.264-2.203.745-2.785 1.008-.582 2.201-.262 2.784.748.535.925.264 2.203-.744 2.785Zm8.646 14.976c-1.009.582-2.203.262-2.785-.748-.583-1.01-.264-2.203.745-2.786 1.008-.582 2.201-.261 2.784.748.583 1.01.264 2.204-.744 2.786Zm8.694 15.059c-1.008.583-2.202.262-2.785-.747-.583-1.01-.263-2.204.745-2.786 1.009-.582 2.202-.262 2.785.748.583 1.01.264 2.203-.745 2.785Zm8.695 15.06c-1.008.582-2.202.262-2.785-.748-.583-1.009-.264-2.203.745-2.786 1.008-.582 2.202-.261 2.785.748.534.926.263 2.204-.745 2.786Zm8.694 15.06c-1.008.582-2.202.261-2.784-.748-.583-1.01-.264-2.204.744-2.786 1.009-.582 2.203-.262 2.785.748.583 1.009.264 2.203-.745 2.786Zm8.647 14.974c-1.009.582-2.202.262-2.785-.748-.583-1.009-.264-2.203.745-2.785 1.008-.583 2.201-.262 2.784.747.583 1.01.264 2.204-.745 2.786Zm8.694 15.06c-1.008.582-2.202.262-2.785-.748-.583-1.01-.263-2.203.745-2.786 1.008-.582 2.202-.262 2.785.748.583 1.01.264 2.204-.745 2.786Zm8.695 15.059c-1.009.583-2.202.262-2.785-.747-.583-1.01-.264-2.204.745-2.786 1.008-.582 2.202-.262 2.785.748.534.925.263 2.203-.745 2.785ZM3.805 55.014c-1.009.583-2.202.262-2.785-.747-.583-1.01-.264-2.204.745-2.786 1.008-.582 2.202-.262 2.785.748.582 1.01.18 2.252-.745 2.785Zm8.695 15.06c-1.01.582-2.203.262-2.786-.748-.582-1.01-.263-2.203.745-2.786 1.009-.582 2.202-.261 2.785.748.534.926.18 2.252-.745 2.786Zm8.646 14.976c-1.009.582-2.203.261-2.785-.748-.583-1.01-.264-2.204.744-2.786 1.009-.582 2.203-.262 2.785.748.583 1.01.18 2.252-.744 2.785Zm8.694 15.059c-1.008.582-2.202.262-2.785-.748-.583-1.01-.263-2.203.745-2.785 1.009-.583 2.202-.262 2.785.747.583 1.01.18 2.252-.745 2.786Zm8.695 15.06c-1.009.582-2.202.261-2.785-.748-.583-1.01-.264-2.204.745-2.786 1.008-.582 2.202-.262 2.785.748.534.925.18 2.252-.745 2.786Zm8.695 15.059c-1.01.583-2.203.262-2.786-.748-.583-1.009-.263-2.203.745-2.785 1.009-.583 2.202-.262 2.785.748.583 1.009.18 2.252-.745 2.785Zm8.646 14.976c-1.009.582-2.203.262-2.785-.748-.583-1.01-.264-2.203.745-2.786 1.008-.582 2.202-.261 2.784.748.583 1.01.18 2.252-.744 2.786Zm8.694 15.059c-1.008.583-2.202.262-2.785-.747-.583-1.01-.263-2.204.745-2.786 1.009-.582 2.202-.262 2.785.748.583 1.009.18 2.252-.745 2.785Zm8.695 15.06c-1.009.582-2.202.262-2.785-.748-.583-1.009-.264-2.203.745-2.786 1.008-.582 2.202-.261 2.785.748.534.926.18 2.252-.745 2.786Z"/></g><defs><clipPath id="a"><path fill="#fff" transform="rotate(60 45.466 78.75)" d="M0 0h143v105H0z"/></clipPath></defs></svg>