<svg width="112" height="170" fill="none" xmlns="http://www.w3.org/2000/svg"><g opacity=".8" clip-path="url(#a)" fill="#FFCF2D"><path d="M6.832 35.746c-.792.792-1.987.785-2.788-.016-.802-.801-.809-1.996-.017-2.788.793-.792 1.988-.785 2.789.016.734.734.742 2.062.016 2.788Zm11.885 11.886c-.792.792-1.987.785-2.788-.016-.802-.801-.808-1.996-.016-2.788.792-.793 1.987-.786 2.788.016.801.8.742 2.062.016 2.788ZM30.67 59.584c-.793.792-1.988.785-2.789-.016-.801-.801-.808-1.996-.016-2.788.792-.792 1.987-.785 2.788.016.801.801.742 2.062.016 2.788Zm11.951 11.952c-.792.792-1.987.785-2.788-.016-.801-.801-.808-1.996-.016-2.788.792-.792 1.987-.785 2.788.016.735.734.742 2.062.016 2.788Zm11.953 11.951c-.792.793-1.987.786-2.789-.016-.801-.801-.808-1.996-.016-2.788.792-.792 1.987-.785 2.788.016.802.801.743 2.062.017 2.788Zm11.885 11.887c-.792.792-1.987.785-2.789-.016-.8-.801-.808-1.996-.016-2.788.792-.792 1.987-.785 2.789.016.801.801.742 2.062.016 2.788Zm11.952 11.951c-.792.792-1.987.785-2.788-.016-.801-.801-.808-1.996-.016-2.788.792-.792 1.987-.785 2.788.016.801.801.742 2.062.016 2.788Zm11.952 11.953c-.792.792-1.987.786-2.788-.016-.802-.801-.808-1.996-.016-2.788.792-.792 1.987-.785 2.788.016.735.735.742 2.062.016 2.788ZM8.882 57.467c-.792.792-1.987.785-2.788-.016-.801-.801-.808-1.996-.016-2.788.792-.793 1.987-.786 2.788.016.801.8.808 1.996.016 2.788Zm11.953 11.952c-.793.792-1.988.785-2.789-.016-.801-.801-.808-1.996-.016-2.788.792-.792 1.987-.785 2.788.016.802.801.809 1.996.017 2.788ZM32.786 81.37c-.792.792-1.987.785-2.788-.016-.801-.801-.808-1.996-.016-2.788.792-.792 1.987-.785 2.788.016.735.734.808 1.996.016 2.788Zm11.953 11.953c-.792.792-1.987.786-2.789-.016-.801-.801-.808-1.996-.016-2.788.792-.792 1.987-.785 2.788.016.802.801.809 1.996.017 2.788Zm11.885 11.885c-.792.792-1.987.785-2.788-.016-.801-.801-.808-1.996-.016-2.788.792-.792 1.987-.785 2.788.016.801.801.808 1.996.016 2.788Zm11.952 11.953c-.792.792-1.987.785-2.788-.016-.801-.801-.808-1.996-.016-2.788.792-.792 1.987-.785 2.788.016.801.801.808 1.996.016 2.788Zm11.952 11.951c-.792.792-1.987.786-2.788-.016-.801-.801-.808-1.996-.016-2.788.792-.792 1.987-.785 2.788.016.735.735.808 1.996.016 2.788ZM14.483 4.19c-.792.793-1.987.786-2.788-.016-.801-.8-.808-1.996-.016-2.788.792-.792 1.987-.785 2.788.016.801.801.808 1.996.016 2.789Zm11.952 11.953c-.792.792-1.987.785-2.788-.016-.801-.802-.808-1.997-.016-2.789s1.987-.785 2.788.016c.735.735.808 1.997.016 2.789ZM38.32 28.028c-.791.793-1.986.786-2.788-.016-.8-.8-.808-1.996-.016-2.788.792-.792 2.054-.718 2.788.016.802.801.809 1.996.017 2.788ZM50.273 39.98c-.792.793-1.987.786-2.789-.015-.8-.802-.808-1.997-.016-2.789s2.054-.718 2.789.016c.734.735.808 1.996.016 2.789Zm11.952 11.953c-.792.792-1.987.785-2.788-.016-.802-.802-.808-1.997-.017-2.789.793-.792 1.988-.785 2.789.016.734.735.808 1.997.016 2.789Zm11.952 11.951c-.792.792-1.987.785-2.788-.016-.801-.802-.808-1.997-.016-2.788.792-.793 1.987-.786 2.788.016.801.8.808 1.996.016 2.788ZM86.063 75.77c-.793.793-1.987.786-2.789-.016-.801-.8-.808-1.996-.016-2.788.792-.792 1.987-.785 2.788.016.802.802.809 1.996.017 2.789Zm11.952 11.952c-.792.792-1.987.785-2.789-.016-.8-.802-.808-1.997-.016-2.789s1.987-.785 2.789.016c.8.802.808 1.997.016 2.789Zm11.952 11.953c-.792.792-1.987.785-2.789-.016-.801-.802-.808-1.996-.016-2.788.792-.793 1.987-.786 2.789.016.734.734.808 1.996.016 2.788ZM4.649 14.025c-.793.793-1.988.786-2.789-.016a1.983 1.983 0 0 1-.016-2.788c.792-.792 1.987-.785 2.788.016.802.801.809 1.996.017 2.788ZM16.6 25.978c-.791.792-1.986.785-2.788-.017-.8-.8-.808-1.996-.016-2.788.792-.792 1.987-.785 2.789.016.734.735.808 1.997.016 2.789Zm11.886 11.884c-.792.792-1.987.786-2.788-.016-.802-.801-.809-1.996-.017-2.788.793-.792 1.988-.785 2.789.016.801.801.808 1.996.016 2.788Zm11.952 11.953c-.792.792-1.987.785-2.788-.017-.801-.8-.808-1.996-.016-2.788.792-.792 1.987-.785 2.788.016.802.801.808 1.996.016 2.788ZM52.39 61.767c-.792.792-1.987.785-2.788-.016-.801-.802-.808-1.997-.016-2.789s1.987-.785 2.788.016c.735.735.808 1.997.016 2.789ZM64.342 73.72c-.792.792-1.987.785-2.788-.016-.801-.801-.808-1.996-.016-2.789.792-.792 1.987-.785 2.788.016.802.802.808 1.997.016 2.789Zm11.886 11.885c-.792.792-1.987.785-2.789-.017-.8-.8-.808-1.996-.016-2.788.792-.792 1.987-.785 2.788.016.802.802.809 1.996.017 2.789ZM88.18 97.556c-.792.792-1.987.785-2.788-.016-.802-.802-.808-1.997-.016-2.789s1.987-.785 2.788.016c.801.802.808 1.997.016 2.789Zm11.952 11.953c-.792.792-1.987.785-2.788-.016-.802-.801-.809-1.996-.016-2.789.792-.792 1.987-.785 2.788.017.734.734.808 1.996.016 2.788ZM-.887 67.235c-.792.793-1.987.786-2.788-.016-.801-.8-.808-1.996-.016-2.788.792-.792 1.987-.785 2.788.016.802.801.742 2.062.016 2.788Zm11.953 11.952c-.793.792-1.988.785-2.789-.016-.801-.802-.808-1.997-.016-2.789s1.987-.785 2.788.016c.802.802.743 2.063.017 2.789ZM23.018 91.14c-.792.792-1.987.785-2.789-.016-.8-.802-.808-1.997-.016-2.789s1.987-.785 2.789.016c.734.735.742 2.063.016 2.789Zm11.952 11.951c-.792.792-1.987.785-2.788-.016-.802-.801-.809-1.996-.017-2.788.793-.793 1.988-.786 2.789.016.801.801.742 2.062.016 2.788Zm11.885 11.887c-.792.792-1.987.785-2.788-.016-.801-.802-.808-1.997-.016-2.789s1.987-.785 2.788.016c.801.802.742 2.063.016 2.789Zm11.952 11.951c-.792.792-1.987.785-2.788-.016-.801-.802-.808-1.997-.016-2.789s1.987-.785 2.788.016c.802.802.742 2.063.017 2.789Zm11.953 11.953c-.793.792-1.988.785-2.789-.016-.801-.801-.808-1.996-.016-2.788.792-.793 1.987-.786 2.788.016.735.734.742 2.062.016 2.788ZM-1.558 89.007a1.972 1.972 0 0 0 2.789.015 1.972 1.972 0 0 0-.016-2.788 1.972 1.972 0 0 0-2.789-.016 1.972 1.972 0 0 0 .016 2.788Zm14.741 11.967c-.792.792-1.987.785-2.788-.016-.801-.802-.808-1.997-.016-2.789s1.987-.785 2.788.016c.735.735.808 1.997.016 2.789Zm11.952 11.953c-.792.792-1.987.785-2.788-.016-.802-.802-.808-1.996-.016-2.789.792-.792 1.987-.785 2.788.017.801.801.808 1.996.016 2.788Zm11.885 11.885c-.792.792-1.987.785-2.788-.016-.801-.802-.808-1.997-.016-2.789s1.987-.785 2.788.016c.802.802.809 1.997.017 2.789Zm9.164 11.937a1.973 1.973 0 0 0 2.789.016 1.972 1.972 0 0 0-.016-2.789 1.973 1.973 0 0 0-2.789-.016 1.973 1.973 0 0 0 .016 2.789Zm14.741 11.967c-.792.792-1.987.785-2.788-.016-.802-.801-.809-1.996-.017-2.789.793-.792 1.988-.785 2.789.017.734.734.808 1.996.016 2.788ZM3.348 110.81c-.792.792-1.987.785-2.788-.016-.802-.802-.808-1.997-.016-2.789s1.987-.785 2.788.016c.734.735.808 1.997.016 2.789ZM15.3 122.761c-.792.792-1.987.785-2.788-.016-.801-.802-.808-1.997-.016-2.789s1.987-.785 2.788.017c.801.801.808 1.996.016 2.788Zm11.885 11.887c-.792.792-1.987.785-2.788-.017-.801-.801-.808-1.996-.016-2.788.792-.792 1.987-.785 2.788.016.802.802.808 1.996.016 2.789Zm11.953 11.951c-.792.792-1.987.785-2.789-.016-.801-.802-.808-1.997-.016-2.789s1.987-.785 2.788.016c.802.802.809 1.997.017 2.789Zm11.952 11.953c-.792.792-1.987.785-2.789-.016-.8-.802-.808-1.996-.016-2.789.792-.792 1.987-.785 2.789.017.734.734.808 1.996.016 2.788ZM5.532 132.53c-.792.792-1.987.786-2.789-.016-.801-.801-.808-1.996-.016-2.788.792-.792 1.987-.785 2.788.016.802.801.743 2.062.017 2.788Zm11.885 11.885c-.792.792-1.987.785-2.788-.016-.801-.801-.808-1.996-.016-2.788.792-.792 1.987-.785 2.788.016.801.801.742 2.062.016 2.788Zm11.953 11.953c-.793.792-1.988.785-2.79-.016-.8-.801-.807-1.996-.015-2.788.792-.792 1.987-.785 2.788.016.801.801.742 2.062.016 2.788Zm11.951 11.951c-.792.792-1.987.786-2.788-.016-.801-.801-.808-1.996-.016-2.788.792-.792 1.987-.785 2.788.016.735.735.742 2.062.016 2.788Z"/></g><defs><clipPath id="a"><path fill="#fff" transform="rotate(45 6.532 15.77)" d="M0 0h139v101H0z"/></clipPath></defs></svg>